# xmcd
#
# Track frame offsets:
#	150
#	26104
#	47298
#	69934
#	91440
#	114262
#	129242
#	205090
#
# Disc length: 3075 seconds
#
# Revision: 0
# Processed by: cddbd v1.5.1PL0 Copyright (c) Steve Scherf et al.
# Submitted via: EasyCDDAExtractor 7.7.1.2
#
DISCID=5d0c0108
DTITLE=B.B. King - Completely Well
DYEAR=1900
DGENRE=
TTITLE0=So Excited
TTITLE1=No Good
TTITLE2=You're Losing Me
TTITLE3=What Happened
TTITLE4=Confessin' The Blues
TTITLE5=Key to My Kingdom
TTITLE6=Cryin' Won't Help You Now - You're Mean
TTITLE7=The Thrill is Gone
EXTD=
EXTT0=
EXTT1=
EXTT2=
EXTT3=
EXTT4=
EXTT5=
EXTT6=
EXTT7=
PLAYORDER=
